<svg xmlns="http://www.w3.org/2000/svg" id="i-logo" fill="none" viewBox="0 0 110 30">
  <path fill="#000" d="M94.115.012c-10.729 0-15.989 7.506-15.989 14.976 0 7.47 5.195 15.012 15.989 15.012C104.908 30 110 22.457 110 14.988 110 7.518 104.662.012 94.115.012zm0 24.719c-6.494 0-9.716-4.89-9.716-9.682 0-4.792 3.222-9.78 9.716-9.78s9.676 4.89 9.676 9.78-3.299 9.719-9.702 9.719l.026-.037zM64.878 0H45.68v5.061h19.197V0z"></path>
  <path fill="#000" d="M58.357 2.347h-6.143V30h6.143V2.347zM74.49 0h-6.144v30h6.143V0zM6.144 0H0v30h6.144V0zm8.819 30h6.585L13.34 13.105H6.82L14.963 30z"></path><path fill="#000" d="M21.38 8.875c0-6.406-5.066-8.863-10.262-8.863H2.143v17.726h8.326c5.195 0 10.91-2.445 10.91-8.85v-.013zm-6.066 0c0 2.543-2.455 3.435-4.469 3.435H6.144V5.428h4.701c2.014 0 4.468.88 4.468 3.435v.012zM35.563 0h-1.364L20.392 30h6.715l7.767-17.36L42.654 30h6.702L35.563 0z"></path>
</svg>
