<svg xmlns="http://www.w3.org/2000/svg" fill="currentColor" viewBox="0 0 16 12">
  <path d="M964.689,341.888a15.061,15.061,0,0,1,.292,2.563l0.03,1.562-0.03,1.563a15.233,15.233,0,0,1-.292,2.594,2.216,2.216,0,0,1-.528.937,2.01,2.01,0,0,1-.908.563,19.622,19.622,0,0,1-3.574.312l-2.666.031-2.666-.031a19.611,19.611,0,0,1-3.574-.312,2.013,2.013,0,0,1-.909-0.563,2.214,2.214,0,0,1-.527-0.937,15.211,15.211,0,0,1-.293-2.594l-0.029-1.563q0-.687.029-1.562a15.04,15.04,0,0,1,.293-2.563,2.2,2.2,0,0,1,.527-0.968,2,2,0,0,1,.909-0.563,19.515,19.515,0,0,1,3.574-.312l2.666-.032,2.666,0.032a19.526,19.526,0,0,1,3.574.312,2,2,0,0,1,.908.563A2.2,2.2,0,0,1,964.689,341.888Zm-9.317,6.688,4.19-2.563-4.19-2.531v5.094Z"
        transform="translate(-949 -340)"/>
</svg>
